<?xml version="1.0" encoding="UTF-8" standalone="no"?>
<svg width="32" height="32" viewBox="0 0 32 32" xmlns="http://www.w3.org/2000/svg">
  <style>
    .main-color { fill: #00cc66; }
    .accent-color { fill: #009966; }
    .highlight { fill: #33ff99; }
  </style>
  <g>
    <!-- Hexagonal base -->
    <path class="accent-color" d="M16,2 L28,8 L28,24 L16,30 L4,24 L4,8 Z" />
    
    <!-- G3 stylized -->
    <path class="main-color" d="M10,10 L10,14 L8,14 L8,10 L10,10 Z" />
    <path class="main-color" d="M8,14 L8,18 L12,18 L12,16 L10,16 L10,14 L8,14 Z" />
    <path class="main-color" d="M14,10 L14,18 L16,18 L16,14 L18,14 L18,18 L20,18 L20,10 L14,10 Z" />
    <path class="main-color" d="M22,10 L22,16 L24,16 L24,18 L22,18 L22,20 L26,20 L26,10 Z" />
    
    <!-- Circuit traces -->
    <path class="highlight" d="M8,9 L10,9 L10,10 L8,10 Z" />
    <path class="highlight" d="M14,9 L20,9 L20,10 L14,10 Z" />
    <path class="highlight" d="M22,9 L26,9 L26,10 L22,10 Z" />
  </g>
</svg>